<svg width="45" height="46" viewBox="0 0 45 46" fill="none" xmlns="http://www.w3.org/2000/svg">
<g clip-path="url(#clip0_44_35)">
<g filter="url(#filter0_d_44_35)">
<path d="M25.9998 14.3333C24.7112 14.3333 23.6665 13.2887 23.6665 12C23.6665 10.7113 24.7112 9.66667 25.9998 9.66667C27.0566 9.66667 27.9494 10.3693 28.2364 11.3328L31.9998 11.3329V10L33.3332 9.9996V6.16226L31.8378 4.66625H27.9998V6.00002H23.9998V2.00002H27.9998V3.33293H31.8378L33.9998 1.17159L36.8282 4.00002L34.6665 6.16093V9.9996L35.9998 10V14H31.9998V12.6663L28.2365 12.6669C27.9496 13.6306 27.0568 14.3333 25.9998 14.3333ZM25.9998 11C25.4476 11 24.9998 11.4477 24.9998 12C24.9998 12.5523 25.4476 13 25.9998 13C26.5521 13 26.9998 12.5523 26.9998 12C26.9998 11.4477 26.5521 11 25.9998 11ZM34.6665 11.3333H33.3332V12.6667H34.6665V11.3333ZM33.9998 3.05721L33.057 4.00002L33.9998 4.94283L34.9426 4.00002L33.9998 3.05721ZM26.6665 3.33335H25.3332V4.66669H26.6665V3.33335Z" fill="#40A700"/>
</g>
</g>
<g clip-path="url(#clip1_44_35)">
<g filter="url(#filter1_d_44_35)">
<path d="M10.5853 23.7144L12.908 23.7144L12.7973 21.2391L10.7328 21.2391L10.5853 23.7144Z" fill="#40A700"/>
<path d="M6.97036 14.2701L8.25553 14.2701L8.25553 12.7851L7.59157 12.7851C6.06394 12.7851 4.73251 13.676 4.13694 15.0247L4.46169 14.8623C5.23654 14.4749 6.10401 14.2702 6.97036 14.2701Z" fill="#40A700"/>
<path d="M10.3559 27.5627C10.3356 27.9386 10.4677 28.298 10.7278 28.5726C10.988 28.8472 11.3397 28.9984 11.718 28.9984C12.0963 28.9984 12.4482 28.8474 12.7081 28.5725C12.9683 28.2979 13.1003 27.9386 13.0799 27.5609L12.9374 24.376L10.5457 24.3759L10.3559 27.5627Z" fill="#40A700"/>
<path d="M8.91732 11.7119L8.91732 12.4541L8.91734 12.4543L8.91734 12.4545L8.91734 15.3434L10.733 15.3434L10.7331 15.3434L12.8797 15.3434L12.8798 15.3434L14.6955 15.3434L14.6955 11.7119L8.91732 11.7119Z" fill="#40A700"/>
<path d="M16.788 11.7118L16.788 12.0964L16.788 12.0966L16.788 14.9587L16.7879 14.9591L16.7879 15.3434L17.5574 15.3434L17.5574 11.7119L16.788 11.7118Z" fill="#40A700"/>
<path d="M16.1265 12.5203L15.357 12.7126L15.357 14.3426L16.1265 14.535L16.1265 12.5203Z" fill="#40A700"/>
<path d="M10.7721 20.5774L12.7676 20.5775L12.5631 16.005H11.0445L10.7721 20.5774Z" fill="#40A700"/>
</g>
</g>
<g clip-path="url(#clip2_44_35)">
<g filter="url(#filter2_d_44_35)">
<path d="M43.0005 20.4783V16.6756H16.7098V17.9275H5.59888C5.59888 17.9275 7.27335 24.2811 16.1308 24.2811C20.8725 24.2811 21.5141 26.2685 21.5141 27.2701C21.5141 28.5846 20.716 30.6973 15.7709 32.403V36.0806H21.8271C22.8913 35.2669 24.2215 34.7974 25.6612 34.7974C27.1009 34.7974 28.4311 35.2825 29.4953 36.0806H35.6454C35.6454 36.0806 35.6454 33.7176 35.6454 32.4969C31.9835 31.292 29.5892 29.3045 29.5892 27.051C29.5892 23.4986 35.5046 20.6661 43.0005 20.4783ZM16.7098 19.8054C8.57223 19.8054 8.57223 19.1794 8.57223 19.1794H16.7098C16.7098 19.1794 16.7098 19.555 16.7098 19.8054ZM17.9618 18.5535V17.9275H41.7486V18.5535H17.9618Z" fill="url(#paint0_linear_44_35)"/>
</g>
</g>
<defs>
<filter id="filter0_d_44_35" x="19.6665" y="1.17159" width="21.1616" height="21.1617" filterUnits="userSpaceOnUse" color-interpolation-filters="sRGB">
<feFlood flood-opacity="0" result="BackgroundImageFix"/>
<feColorMatrix in="SourceAlpha" type="matrix" values="0 0 0 0 0 0 0 0 0 0 0 0 0 0 0 0 0 0 127 0" result="hardAlpha"/>
<feOffset dy="4"/>
<feGaussianBlur stdDeviation="2"/>
<feComposite in2="hardAlpha" operator="out"/>
<feColorMatrix type="matrix" values="0 0 0 0 0 0 0 0 0 0 0 0 0 0 0 0 0 0 0.5 0"/>
<feBlend mode="normal" in2="BackgroundImageFix" result="effect1_dropShadow_44_35"/>
<feBlend mode="normal" in="SourceGraphic" in2="effect1_dropShadow_44_35" result="shape"/>
</filter>
<filter id="filter1_d_44_35" x="0.136963" y="11.7118" width="21.4207" height="25.2866" filterUnits="userSpaceOnUse" color-interpolation-filters="sRGB">
<feFlood flood-opacity="0" result="BackgroundImageFix"/>
<feColorMatrix in="SourceAlpha" type="matrix" values="0 0 0 0 0 0 0 0 0 0 0 0 0 0 0 0 0 0 127 0" result="hardAlpha"/>
<feOffset dy="4"/>
<feGaussianBlur stdDeviation="2"/>
<feComposite in2="hardAlpha" operator="out"/>
<feColorMatrix type="matrix" values="0 0 0 0 0 0 0 0 0 0 0 0 0 0 0 0 0 0 0.99 0"/>
<feBlend mode="normal" in2="BackgroundImageFix" result="effect1_dropShadow_44_35"/>
<feBlend mode="normal" in="SourceGraphic" in2="effect1_dropShadow_44_35" result="shape"/>
</filter>
<filter id="filter2_d_44_35" x="1.59888" y="16.6756" width="45.4016" height="27.405" filterUnits="userSpaceOnUse" color-interpolation-filters="sRGB">
<feFlood flood-opacity="0" result="BackgroundImageFix"/>
<feColorMatrix in="SourceAlpha" type="matrix" values="0 0 0 0 0 0 0 0 0 0 0 0 0 0 0 0 0 0 127 0" result="hardAlpha"/>
<feOffset dy="4"/>
<feGaussianBlur stdDeviation="2"/>
<feComposite in2="hardAlpha" operator="out"/>
<feColorMatrix type="matrix" values="0 0 0 0 0 0 0 0 0 0 0 0 0 0 0 0 0 0 0.5 0"/>
<feBlend mode="normal" in2="BackgroundImageFix" result="effect1_dropShadow_44_35"/>
<feBlend mode="normal" in="SourceGraphic" in2="effect1_dropShadow_44_35" result="shape"/>
</filter>
<linearGradient id="paint0_linear_44_35" x1="24.2997" y1="16.6756" x2="24.2997" y2="36.0806" gradientUnits="userSpaceOnUse">
<stop stop-color="#FFCD04"/>
<stop offset="1" stop-color="#579849"/>
</linearGradient>
<clipPath id="clip0_44_35">
<rect width="16" height="16" fill="white" transform="translate(22)"/>
</clipPath>
<clipPath id="clip1_44_35">
<rect width="17" height="17" fill="white" transform="translate(0 18.0208) rotate(-45)"/>
</clipPath>
<clipPath id="clip2_44_35">
<rect width="40.062" height="40.062" fill="white" transform="translate(4.19043 6.19058)"/>
</clipPath>
</defs>
</svg>
